<?xml version="1.0" encoding="utf-8"?>
<!-- Generator: Adobe Illustrator 23.1.0, SVG Export Plug-In . SVG Version: 6.00 Build 0)  -->
<svg version="1.1" id="圖層_1" xmlns="http://www.w3.org/2000/svg" xmlns:xlink="http://www.w3.org/1999/xlink" x="0px" y="0px"
	 viewBox="0 0 72 72" style="enable-background:new 0 0 72 72;" xml:space="preserve">
<g>
	<path d="M43.6,25.4c-5.7-6.6-9-16.1-10.2-23.1l0-0.2c-7.2,0.6-14.1,3.4-19.9,8.4L36,33L43.6,25.4z"/>
	<path d="M25.4,43.6L33,36L10.5,13.5l0,0C5.4,19.2,2.6,26.2,2,33.3l0.2,0C9.3,34.6,18.7,37.9,25.4,43.6z"/>
	<path d="M58.5,10.5c-6-5.3-13.3-8.1-20.8-8.5c1.1,6.3,4,14.6,9,20.4L58.5,10.5z"/>
	<path d="M70,34.3c-0.4-7.5-3.2-14.9-8.5-20.8L49.7,25.4C55.5,30.3,63.7,33.2,70,34.3z"/>
	<path d="M2,37.7c0.4,7.5,3.2,14.9,8.5,20.8l11.9-11.9C16.5,41.7,8.3,38.8,2,37.7z"/>
	<path d="M46.6,28.4L39,36l22.5,22.5c5.1-5.7,7.9-12.7,8.4-19.9l-0.2,0C62.7,37.4,53.3,34.1,46.6,28.4z"/>
	<path d="M28.4,46.6c5.7,6.6,9,16.1,10.2,23.1l0,0.2c7.2-0.6,14.1-3.4,19.9-8.4L36,39L28.4,46.6z"/>
	<path d="M13.5,61.5c6,5.3,13.4,8.1,20.8,8.5c-1.1-6.3-4-14.6-9-20.4L13.5,61.5z"/>
</g>
</svg>
