<?xml version="1.0" encoding="utf-8"?>
<!-- Generator: Adobe Illustrator 23.1.0, SVG Export Plug-In . SVG Version: 6.00 Build 0)  -->
<svg version="1.1" id="圖層_1" xmlns="http://www.w3.org/2000/svg" xmlns:xlink="http://www.w3.org/1999/xlink" x="0px" y="0px"
	 viewBox="0 0 72 72" style="enable-background:new 0 0 72 72;" xml:space="preserve">
<style type="text/css">
	.st0{fill-rule:evenodd;clip-rule:evenodd;fill:url(#SVGID_1_);}
</style>
<linearGradient id="SVGID_1_" gradientUnits="userSpaceOnUse" x1="-264.1563" y1="426.5491" x2="-263.0938" y2="425.4866" gradientTransform="matrix(56 0 0 -56 14799 23893)">
	<stop  offset="2.200000e-04" style="stop-color:#3FBDFC"/>
	<stop  offset="1" style="stop-color:#2A67F7"/>
</linearGradient>
<path class="st0" d="M36,61.5c-14.1,0-25.5-11.4-25.5-25.5S21.9,10.5,36,10.5S61.5,21.9,61.5,36S50.1,61.5,36,61.5 M36,6.3
	C19.6,6.3,6.3,19.6,6.3,36S19.6,65.8,36,65.8S65.8,52.4,65.8,36S52.4,6.3,36,6.3 M48,25.5L31.5,42L24,34.5c-0.8-0.8-2.2-0.8-3,0
	c-0.8,0.8-0.8,2.2,0,3l9,9c0.8,0.8,2.2,0.8,3,0l18-18c0.8-0.8,0.8-2.2,0-3C50.2,24.7,48.9,24.7,48,25.5"/>
</svg>
