<?xml version="1.0" encoding="utf-8"?>
<!-- Generator: Adobe Illustrator 23.1.0, SVG Export Plug-In . SVG Version: 6.00 Build 0)  -->
<svg version="1.1" id="圖層_1" xmlns="http://www.w3.org/2000/svg" xmlns:xlink="http://www.w3.org/1999/xlink" x="0px" y="0px"
	 viewBox="0 0 72 72" style="enable-background:new 0 0 72 72;" xml:space="preserve">
<style type="text/css">
	.st0{fill-rule:evenodd;clip-rule:evenodd;}
</style>
<path class="st0" d="M53.8,18.2c-1.1-1.1-2.9-1.1-4,0L36,32L22.1,18.1c-1.1-1.1-2.9-1.1-4,0c-1.1,1.1-1.1,2.9,0,4L32,36L18.1,49.9
	c-1.1,1.1-1.1,2.9,0,4c1.1,1.1,2.9,1.1,4,0L36,40l13.9,13.9c1.1,1.1,2.9,1.1,4,0c1.1-1.1,1.1-2.9,0-4L40,36l13.9-13.9
	C54.9,21.1,54.9,19.3,53.8,18.2z"/>
</svg>
