<?xml version="1.0" encoding="utf-8"?>
<!-- Generator: Adobe Illustrator 23.1.0, SVG Export Plug-In . SVG Version: 6.00 Build 0)  -->
<svg version="1.1" id="圖層_1" xmlns="http://www.w3.org/2000/svg" xmlns:xlink="http://www.w3.org/1999/xlink" x="0px" y="0px"
	 viewBox="0 0 72 72" style="enable-background:new 0 0 72 72;" xml:space="preserve">
<style type="text/css">
	.st0{fill-rule:evenodd;clip-rule:evenodd;fill:url(#SVGID_1_);}
</style>
<linearGradient id="SVGID_1_" gradientUnits="userSpaceOnUse" x1="-256.1846" y1="415.4583" x2="-253.3512" y2="412.625" gradientTransform="matrix(21 0 0 -21 5381.5 8735.5)">
	<stop  offset="2.200000e-04" style="stop-color:#3FBDFC"/>
	<stop  offset="1" style="stop-color:#2A67F7"/>
</linearGradient>
<path class="st0" d="M23.3,48.8l0.1,0c-0.1-0.7-0.1-1.4-0.1-2.1c0-1.5,0.1-2.9,0.4-4.3c-0.1,0-0.3,0-0.4,0c-5.6,0-10.5-1.7-13.6-4.3
	c-1.5-1.2-2.6-2.7-3.1-4.3H6.3V36c0,0.7,0.1,3.6,0.3,4.3C8.2,45.1,15,48.8,23.3,48.8 M23.3,53c-5.6,0-10.5-1.7-13.6-4.3
	c-1.5-1.2-2.6-2.7-3.1-4.3H6.3v2.1c0,0.7,0.1,3.6,0.3,4.3c1.6,4.9,8.4,8.5,16.7,8.5c1.2,0,2.5-0.1,3.6-0.3c-1.2-1.9-2.1-4-2.7-6.2
	C23.8,53,23.5,53,23.3,53 M23.2,38.1c0.5,0,1.1,0,1.6-0.1c1-2.6,2.5-4.9,4.3-7c-1.8,0.4-3.8,0.7-5.9,0.7c-5.6,0-10.5-1.7-13.6-4.3
	c-1.5-1.2-2.6-2.7-3.1-4.3H6.3v2.1c0,0.7,0.1,3.6,0.3,4.3C8.2,34.5,15,38.1,23.2,38.1 M23.3,27.5c9.4,0,17-4.8,17-10.6
	s-7.6-10.6-17-10.6s-17,4.8-17,10.6S13.9,27.5,23.3,27.5 M45.6,43.8c0.2,0.2,0.7,0.6,1.9,1c1,0.4,1.9,0.7,2.6,1.1
	c0.7,0.4,1.3,0.8,1.8,1.2c0.5,0.5,0.9,1,1.2,1.6c0.3,0.6,0.4,1.3,0.4,2.1c0,1.5-0.5,2.7-1.5,3.6c-0.9,0.8-2.1,1.3-3.6,1.5v1.9
	c0,0.3-0.2,0.5-0.5,0.5h-2.1c-0.3,0-0.5-0.2-0.5-0.5v-1.9c-1.7-0.2-3-0.8-3.9-1.8c-1.1-1.1-1.6-2.5-1.6-4.2c0-0.3,0.2-0.5,0.5-0.5
	H44c0.3,0,0.5,0.2,0.5,0.5c0,0.8,0.2,1.4,0.6,1.8c0.4,0.4,0.9,0.6,1.7,0.6c0.6,0,1.1-0.1,1.5-0.4c0.3-0.3,0.5-0.6,0.5-1.1
	c0-0.5-0.1-0.9-0.4-1.2c-0.2-0.2-0.7-0.6-1.8-0.9c-0.9-0.3-1.8-0.7-2.5-1c-0.7-0.3-1.4-0.7-1.9-1.2c-0.5-0.5-1-1-1.3-1.6
	c-0.3-0.6-0.5-1.4-0.5-2.2c0-1.5,0.5-2.7,1.6-3.6c0.9-0.8,2.1-1.4,3.5-1.6v-2c0-0.3,0.2-0.5,0.5-0.5h2.1c0.3,0,0.5,0.2,0.5,0.5v2.1
	c1.4,0.3,2.6,0.9,3.4,1.8c0.9,1.1,1.4,2.4,1.4,4.1c0,0.3-0.2,0.5-0.5,0.5h-3.7c-0.3,0-0.5-0.2-0.5-0.5c0-0.8-0.2-1.4-0.5-1.7
	c-0.3-0.4-0.8-0.5-1.3-0.5c-0.6,0-1,0.1-1.3,0.4c-0.3,0.3-0.4,0.6-0.4,1.1C45.2,43.2,45.4,43.5,45.6,43.8 M46.6,27.5
	c-10.6,0-19.1,8.6-19.1,19.1s8.6,19.1,19.1,19.1s19.1-8.6,19.1-19.1S57.2,27.5,46.6,27.5"/>
</svg>
