<?xml version="1.0" encoding="utf-8"?>
<!-- Generator: Adobe Illustrator 23.1.0, SVG Export Plug-In . SVG Version: 6.00 Build 0)  -->
<svg version="1.1" id="圖層_1" xmlns="http://www.w3.org/2000/svg" xmlns:xlink="http://www.w3.org/1999/xlink" x="0px" y="0px"
	 viewBox="0 0 72 72" style="enable-background:new 0 0 72 72;" xml:space="preserve">
<style type="text/css">
	.st0{fill-rule:evenodd;clip-rule:evenodd;fill:url(#SVGID_1_);}
</style>
<linearGradient id="SVGID_1_" gradientUnits="userSpaceOnUse" x1="-255.9643" y1="415.6786" x2="-253.131" y2="412.8452" gradientTransform="matrix(21 0 0 -21 5381.5 8735.5)">
	<stop  offset="2.200000e-04" style="stop-color:#3FBDFC"/>
	<stop  offset="1" style="stop-color:#2A67F7"/>
</linearGradient>
<path class="st0" d="M47,34.7c-0.6,0.9-1.9,2.1-3.7,3.6l-1.8,1.4c-1,0.8-1.6,1.7-1.9,2.7c-0.1,0.3-0.2,0.7-0.2,1.1
	c-0.1,1.1-1.1,1.9-2.1,1.9h-2.5c-1.3,0-2.3-1.1-2.1-2.4c0.1-1.7,0.4-2.9,0.7-3.6c0.4-1.1,1.6-2.4,3.4-3.9l1.8-1.5
	c0.6-0.5,1.1-1,1.5-1.5c0.7-1,1-2,1-3.1c0-1.3-0.4-2.5-1.1-3.6c-0.7-1.1-2.1-1.6-4.1-1.6c-1.9,0-3.3,0.7-4.2,2
	c-0.5,0.8-0.8,1.6-1,2.5c-0.2,1-1.1,1.7-2.1,1.7h-3c-1.4,0-2.4-1.3-2.1-2.6c0.6-3.6,2.2-6.2,4.8-7.9c2-1.3,4.4-2,7.3-2
	c3.8,0,7,0.9,9.5,2.8c2.5,1.9,3.8,4.6,3.8,8.3C48.7,31.3,48.1,33.2,47,34.7 M36.3,56.2h-0.3c-2,0-3.6-1.6-3.6-3.6
	c0-2,1.6-3.6,3.6-3.6h0.2c2,0,3.6,1.6,3.6,3.6C39.9,54.6,38.3,56.2,36.3,56.2 M36,6.3C19.6,6.3,6.3,19.6,6.3,36S19.6,65.8,36,65.8
	S65.8,52.4,65.8,36S52.4,6.3,36,6.3"/>
</svg>
