<?xml version="1.0" encoding="utf-8"?>
<!-- Generator: Adobe Illustrator 23.1.0, SVG Export Plug-In . SVG Version: 6.00 Build 0)  -->
<svg version="1.1" id="圖層_1" xmlns="http://www.w3.org/2000/svg" xmlns:xlink="http://www.w3.org/1999/xlink" x="0px" y="0px"
	 viewBox="0 0 72 72" style="enable-background:new 0 0 72 72;" xml:space="preserve">
<style type="text/css">
	.st0{fill-rule:evenodd;clip-rule:evenodd;fill:url(#SVGID_1_);}
</style>
<linearGradient id="SVGID_1_" gradientUnits="userSpaceOnUse" x1="-255.9643" y1="407.6895" x2="-253.131" y2="406.2439" gradientTransform="matrix(21 0 0 -15 5381.5 6140.5)">
	<stop  offset="2.200000e-04" style="stop-color:#3FBDFC"/>
	<stop  offset="1" style="stop-color:#2A67F7"/>
</linearGradient>
<path class="st0" d="M59.7,26.9L40.2,38.2L36,40.6l-4.3-2.5L12.3,26.9c-1-0.6-1.4-1.9-0.8-2.9c0.6-1,1.9-1.4,2.9-0.8L36,35.7
	l21.6-12.5c1-0.6,2.3-0.2,2.9,0.8C61,25,60.7,26.3,59.7,26.9 M59.4,14.8H12.6c-3.5,0-6.4,2.9-6.4,6.4v29.8c0,3.5,2.9,6.4,6.4,6.4
	h46.8c3.5,0,6.4-2.9,6.4-6.4V21.1C65.8,17.6,62.9,14.8,59.4,14.8"/>
</svg>
