<?xml version="1.0" encoding="utf-8"?>
<!-- Generator: Adobe Illustrator 23.1.0, SVG Export Plug-In . SVG Version: 6.00 Build 0)  -->
<svg version="1.1" id="圖層_1" xmlns="http://www.w3.org/2000/svg" xmlns:xlink="http://www.w3.org/1999/xlink" x="0px" y="0px"
	 viewBox="0 0 72 72" style="enable-background:new 0 0 72 72;" xml:space="preserve">
<style type="text/css">
	.st0{fill-rule:evenodd;clip-rule:evenodd;fill:url(#SVGID_1_);}
</style>
<linearGradient id="SVGID_1_" gradientUnits="userSpaceOnUse" x1="-255.9643" y1="415.6786" x2="-253.131" y2="412.8452" gradientTransform="matrix(21 0 0 -21 5381.5 8735.5)">
	<stop  offset="0" style="stop-color:#FFAC59"/>
	<stop  offset="1" style="stop-color:#FFE270"/>
</linearGradient>
<path class="st0" d="M34.3,31.8c0.5,0.5,1.5,1,3,1.6c1.6,0.6,2.9,1.1,3.9,1.6c1.1,0.5,2,1.1,2.7,1.8c0.7,0.7,1.3,1.5,1.7,2.4
	c0.4,0.9,0.6,1.9,0.6,3.1c0,2.2-0.8,4-2.3,5.3c-1.4,1.3-3.2,2-5.6,2.3V53c0,0.3-0.2,0.5-0.5,0.5h-3.1c-0.3,0-0.5-0.2-0.5-0.5v-3.1
	c-2.6-0.3-4.6-1.2-6.1-2.7c-1.6-1.6-2.4-3.7-2.4-6.3c0-0.3,0.2-0.5,0.5-0.5H32c0.3,0,0.5,0.2,0.5,0.5c0,1.3,0.3,2.2,1,2.9
	c0.6,0.7,1.6,1,2.8,1c1,0,1.8-0.2,2.4-0.7c0.5-0.5,0.8-1.1,0.8-1.8c0-0.8-0.2-1.5-0.7-2c-0.5-0.5-1.5-1-2.8-1.5
	c-1.4-0.5-2.7-1-3.8-1.5c-1.1-0.5-2-1.1-2.8-1.7c-0.8-0.7-1.4-1.5-1.9-2.4c-0.4-0.9-0.7-2-0.7-3.3c0-2.2,0.8-4,2.3-5.3
	c1.4-1.3,3.2-2.1,5.5-2.3V19c0-0.3,0.2-0.5,0.5-0.5h3.1c0.3,0,0.5,0.2,0.5,0.5v3.4c2.2,0.4,4,1.3,5.3,2.7c1.4,1.6,2.1,3.6,2.1,6
	c0,0.3-0.2,0.5-0.5,0.5H40c-0.3,0-0.5-0.2-0.5-0.5c0-1.3-0.3-2.2-0.8-2.9c-0.5-0.6-1.3-0.9-2.2-0.9c-0.9,0-1.6,0.2-2.1,0.7
	c-0.5,0.5-0.7,1.1-0.7,1.9C33.6,30.8,33.8,31.4,34.3,31.8 M36,6.3C19.6,6.3,6.3,19.6,6.3,36S19.6,65.8,36,65.8
	c16.4,0,29.8-13.3,29.8-29.8S52.4,6.3,36,6.3"/>
</svg>
