<?xml version="1.0" encoding="utf-8"?>
<!-- Generator: Adobe Illustrator 23.1.0, SVG Export Plug-In . SVG Version: 6.00 Build 0)  -->
<svg version="1.1" id="圖層_1" xmlns="http://www.w3.org/2000/svg" xmlns:xlink="http://www.w3.org/1999/xlink" x="0px" y="0px"
	 viewBox="0 0 72 72" style="enable-background:new 0 0 72 72;" xml:space="preserve">
<style type="text/css">
	.st0{fill-rule:evenodd;clip-rule:evenodd;fill:url(#SVGID_1_);}
</style>
<linearGradient id="SVGID_1_" gradientUnits="userSpaceOnUse" x1="-255.9643" y1="412.263" x2="-253.131" y2="410.1814" gradientTransform="matrix(21 0 0 -18 5381.5 7438)">
	<stop  offset="2.200000e-04" style="stop-color:#3FBDFC"/>
	<stop  offset="1" style="stop-color:#2A67F7"/>
</linearGradient>
<path class="st0" d="M53,49.8c-2.9,0-5.3-2.4-5.3-5.3s2.4-5.3,5.3-5.3c2.9,0,5.3,2.4,5.3,5.3S55.9,49.8,53,49.8z M32.8,47.7
	c-0.6-0.6-0.6-1.6,0-2.3l21.1-21.1c0.6-0.6,1.6-0.6,2.3,0c0.6,0.6,0.6,1.6,0,2.3L35.1,47.7C34.4,48.3,33.4,48.3,32.8,47.7z
	 M30.7,27.5c0-2.9,2.4-5.3,5.3-5.3c2.9,0,5.3,2.4,5.3,5.3s-2.4,5.3-5.3,5.3C33.1,32.8,30.7,30.4,30.7,27.5z M23.3,23.3
	c0,1.2-1,2.1-2.1,2.1s-2.1-1-2.1-2.1V19c0-1.2,1-2.1,2.1-2.1s2.1,1,2.1,2.1V23.3z M23.3,38.1c0,1.2-1,2.1-2.1,2.1s-2.1-1-2.1-2.1
	v-4.3c0-1.2,1-2.1,2.1-2.1s2.1,1,2.1,2.1V38.1z M23.3,53c0,1.2-1,2.1-2.1,2.1S19,54.2,19,53v-4.3c0-1.2,1-2.1,2.1-2.1s2.1,1,2.1,2.1
	V53z M59.4,10.5H12.6c-3.5,0-6.4,2.9-6.4,6.4v11.7c4.1,0,7.4,3.3,7.4,7.4s-3.3,7.4-7.4,7.4v11.7c0,3.5,2.9,6.4,6.4,6.4h46.8
	c3.5,0,6.4-2.9,6.4-6.4V16.9C65.8,13.4,62.9,10.5,59.4,10.5z M53,42.4c-1.2,0-2.1,1-2.1,2.1s1,2.1,2.1,2.1s2.1-1,2.1-2.1
	S54.2,42.4,53,42.4z M38.1,27.5c0-1.2-1-2.1-2.1-2.1s-2.1,1-2.1,2.1s1,2.1,2.1,2.1S38.1,28.7,38.1,27.5z"/>
</svg>
