<?xml version="1.0" encoding="utf-8"?>
<!-- Generator: Adobe Illustrator 23.1.0, SVG Export Plug-In . SVG Version: 6.00 Build 0)  -->
<svg version="1.1" id="圖層_1" xmlns="http://www.w3.org/2000/svg" xmlns:xlink="http://www.w3.org/1999/xlink" x="0px" y="0px"
	 viewBox="0 0 72 72" style="enable-background:new 0 0 72 72;" xml:space="preserve">
<style type="text/css">
	.st0{fill-rule:evenodd;clip-rule:evenodd;}
</style>
<path class="st0" d="M52,20c-4.6-4.6-11.2-7.3-18.4-6.5c-10.4,1-19,9.5-20.1,19.9C12,47.1,22.6,58.7,36,58.7c9,0,16.8-5.3,20.4-12.9
	c0.9-1.9-0.5-4.1-2.5-4.1c-1,0-2,0.6-2.5,1.5c-3.2,6.9-10.9,11.2-19.3,9.4c-6.3-1.4-11.4-6.5-12.7-12.8C17,28.8,25.4,19,36,19
	c4.7,0,8.9,2,12,5l-4.3,4.3c-1.8,1.8-0.5,4.8,2,4.8h10.2c1.6,0,2.8-1.3,2.8-2.8V20.2c0-2.5-3.1-3.8-4.8-2C53.8,18.2,52,20,52,20z"/>
</svg>
