<?xml version="1.0" encoding="utf-8"?>
<!-- Generator: Adobe Illustrator 23.1.0, SVG Export Plug-In . SVG Version: 6.00 Build 0)  -->
<svg version="1.1" id="圖層_1" xmlns="http://www.w3.org/2000/svg" xmlns:xlink="http://www.w3.org/1999/xlink" x="0px" y="0px"
	 viewBox="0 0 72 72" style="enable-background:new 0 0 72 72;" xml:space="preserve">
<style type="text/css">
	.st0{fill-rule:evenodd;clip-rule:evenodd;fill:url(#SVGID_1_);}
</style>
<linearGradient id="SVGID_1_" gradientUnits="userSpaceOnUse" x1="-257.7507" y1="415.9582" x2="-254.9174" y2="413.6413" gradientTransform="matrix(24.0003 0 0 -21.7028 6187.0684 9039.4307)">
	<stop  offset="2.200000e-04" style="stop-color:#3FBDFC"/>
	<stop  offset="1" style="stop-color:#2A67F7"/>
</linearGradient>
<path class="st0" d="M52,50.2l-7.5,7.5c-0.4,0.4-1.1,0.4-1.5,0c-0.4-0.4-0.4-1.1,0-1.5l7.5-7.5c0.4-0.4,1.1-0.4,1.5,0
	C52.4,49.1,52.4,49.7,52,50.2 M41.4,60.7c-0.4,0.4-1.1,0.4-1.5,0c-0.4-0.4-0.4-1.1,0-1.5c0.4-0.4,1.1-0.4,1.5,0
	C41.9,59.6,41.9,60.3,41.4,60.7 M69.4,37.1c-0.8-0.8-2.1-0.8-2.9,0l-3.2,3.2c-0.7,0.7-2,0.9-2.8,0.3c-1.1-0.8-1.2-2.3-0.3-3.2
	l3.3-3.3c0.8-0.8,0.8-2.1,0-2.9c-0.5-0.5-1.3-0.7-2-0.5L53,33c-0.4,0.1-0.7,0.4-0.8,0.8l-2.6,9.7L35.6,57.5c-2,2-2.3,5.1-0.5,7.3
	c2,2.5,5.7,2.6,7.9,0.4l14.3-14.3l9.7-2.6c0.4-0.1,0.7-0.4,0.8-0.8l2.3-8.5C70.1,38.3,69.9,37.6,69.4,37.1 M17.9,33.9
	c0-7,5.7-12.7,12.7-12.7s12.7,5.7,12.7,12.7s-5.7,12.7-12.7,12.7S17.9,41,17.9,33.9 M34.4,53.9l12.2-12.2l2.5-9.4
	c0.3-1.1,1.2-2,2.3-2.3l7.4-2C58,26.8,56.7,26,55.1,26H53c-0.1,0-0.2,0-0.3,0c-0.4-1-0.8-2-1.3-3l1.5-1.5c1.7-1.7,1.7-4.4,0-6
	L48.3,11c-1.7-1.7-4.4-1.7-6,0l-1.5,1.5c-0.1,0.1-0.1,0.2-0.2,0.3c-1-0.5-2-0.9-3-1.2V9.5c0-2.3-1.9-4.2-4.2-4.2H27
	c-2.3,0-4.2,1.9-4.2,4.2v2.1c0,0.1,0,0.2,0,0.3c-1,0.4-2,0.8-3,1.3l-1.5-1.5c-1.7-1.7-4.4-1.7-6,0l-4.5,4.5c-1.7,1.7-1.7,4.4,0,6
	l1.5,1.5c0.1,0.1,0.2,0.1,0.3,0.2c-0.5,1-0.9,2-1.2,3H6.2C3.9,27,2,28.9,2,31.3v6.4c0,2.3,1.9,4.2,4.2,4.2h2.1c0.1,0,0.2,0,0.3,0
	c0.4,1,0.8,2,1.3,3l-1.5,1.5c-1.7,1.7-1.7,4.4,0,6l4.5,4.5c1.7,1.7,4.4,1.7,6,0l1.5-1.5c0.1-0.1,0.1-0.2,0.2-0.3c1,0.5,2,0.9,3,1.2
	v2.1c0,2.3,1.9,4.2,4.2,4.2h3.4C31.1,59.5,32.1,56.3,34.4,53.9"/>
</svg>
