<?xml version="1.0" encoding="utf-8"?>
<!-- Generator: Adobe Illustrator 23.1.0, SVG Export Plug-In . SVG Version: 6.00 Build 0)  -->
<svg version="1.1" id="圖層_1" xmlns="http://www.w3.org/2000/svg" xmlns:xlink="http://www.w3.org/1999/xlink" x="0px" y="0px"
	 viewBox="0 0 72 72" style="enable-background:new 0 0 72 72;" xml:space="preserve">
<style type="text/css">
	.st0{fill-rule:evenodd;clip-rule:evenodd;}
</style>
<path class="st0" d="M36,2C17.3,2,2,17.3,2,36c0,18.7,15.3,34,34,34c18.7,0,34-15.3,34-34C70,17.3,54.7,2,36,2z M38.2,13l8.7-4.7
	c4.8,1.9,9.1,5.1,12.3,9.1L57.1,27l-6.7,3.3l-12.3-8.9V13z M25.2,8.3l8.7,4.7v8.3l-12.3,8.9L15,27l-2.1-9.7
	C16.1,13.3,20.3,10.2,25.2,8.3z M11.5,52.8L11.5,52.8c-2.8-4-4.6-8.8-5.1-13.9l7.2-7.8l6.6,3.2l4.9,14l-4.2,5L11.5,52.8z M43.6,64.7
	L43.6,64.7c-2.4,0.6-5,1-7.6,1c-3.2,0-6.2-0.5-9.1-1.4L24.2,56l4.3-5.1h15l4.2,5L43.6,64.7z M51,53.2l-4.1-4.9l5-14l6.5-3.2l7.2,7.8
	c-0.4,4.4-1.9,8.6-4,12.2L51,53.2z"/>
</svg>
