<?xml version="1.0" encoding="utf-8"?>
<!-- Generator: Adobe Illustrator 23.1.0, SVG Export Plug-In . SVG Version: 6.00 Build 0)  -->
<svg version="1.1" id="圖層_1" xmlns="http://www.w3.org/2000/svg" xmlns:xlink="http://www.w3.org/1999/xlink" x="0px" y="0px"
	 viewBox="0 0 72 72" style="enable-background:new 0 0 72 72;" xml:space="preserve">
<g>
	<path d="M32.9,50.5l2,1.2c1.4-3.1,3.2-5.9,5.4-8.4l-1.5-1.5c-0.8-0.8-0.8-2.2,0-3c0.8-0.8,2.2-0.8,3,0l1.5,1.5
		c2.6-2.3,5.6-4.2,8.8-5.6l-1-1.9c-0.5-1.1-0.1-2.3,1-2.9c1.1-0.5,2.3-0.1,2.9,1l1.2,2.4c3.1-0.9,6.3-1.4,9.7-1.4
		c1.3,0,2.7,0.1,4,0.2C67.9,16.5,55.6,4.1,40,2.3v0c0.2,1.3,0.3,2.7,0.3,4c0,4-0.7,7.9-2,11.5l3,1.5c1,0.5,1.5,1.8,1,2.9
		c-0.4,0.7-1.1,1.2-1.9,1.2c-0.3,0-0.6-0.1-0.9-0.2l-2.8-1.4c-1.3,2.6-2.9,4.9-4.8,7.1l1.5,1.5c0.8,0.8,0.8,2.2,0,3
		c-0.4,0.4-1,0.6-1.5,0.6s-1.1-0.2-1.5-0.6l-1.5-1.5c-2.1,1.9-4.5,3.5-7.1,4.8l1.4,2.8c0.5,1.1,0.1,2.3-1,2.9
		c-0.3,0.2-0.6,0.2-0.9,0.2c-0.8,0-1.5-0.4-1.9-1.2l-1.5-3c-3.6,1.3-7.4,2-11.5,2c-1.4,0-2.7-0.1-4-0.3C4.1,55.6,16.5,67.9,32,69.8
		c-0.1-1.3-0.2-2.6-0.2-4c0-3.5,0.5-6.9,1.5-10.1l-2.6-1.5c-1-0.6-1.4-1.9-0.8-2.9C30.5,50.3,31.8,49.9,32.9,50.5z"/>
	<path d="M15.9,34.4L15,32.7c-0.5-1.1-0.1-2.3,1-2.9c1-0.5,2.3-0.1,2.8,1l1,1.9c2.2-1.1,4.2-2.5,6-4l-1.8-1.8c-0.8-0.8-0.8-2.2,0-3
		c0.8-0.8,2.2-0.8,3,0l1.8,1.8c1.6-1.8,2.9-3.8,4-6l-1.9-1c-1.1-0.5-1.5-1.8-1-2.9c0.5-1.1,1.8-1.5,2.8-1l1.7,0.8
		c1-3,1.6-6.2,1.6-9.6c0-1.5-0.1-2.9-0.3-4.3C17.2,2.2,2.2,17.2,2,35.7C3.4,35.9,4.8,36,6.3,36C9.6,36,12.9,35.5,15.9,34.4z"/>
	<path d="M65.8,36L65.8,36c-2.7,0-5.3,0.4-7.7,1.1l1.1,2.2c0.5,1.1,0.1,2.3-1,2.9c-0.3,0.2-0.6,0.2-1,0.2c-0.8,0-1.5-0.4-1.9-1.2
		L54,38.5c-2.8,1.2-5.4,2.9-7.7,4.9l1.8,1.8c0.8,0.8,0.8,2.2,0,3c-0.4,0.4-1,0.6-1.5,0.6s-1.1-0.2-1.5-0.6l-1.8-1.8
		c-1.9,2.2-3.6,4.8-4.8,7.5l2.8,1.6c1,0.6,1.4,1.9,0.8,2.9c-0.4,0.7-1.1,1.1-1.8,1.1c-0.4,0-0.7-0.1-1.1-0.3l-2.1-1.2
		c-0.7,2.5-1.1,5.1-1.1,7.9c0,1.4,0.1,2.8,0.3,4.2C54.9,69.8,69.8,54.9,70,36.4C68.6,36.2,67.2,36,65.8,36z"/>
</g>
</svg>
