<?xml version="1.0" encoding="utf-8"?>
<!-- Generator: Adobe Illustrator 23.1.0, SVG Export Plug-In . SVG Version: 6.00 Build 0)  -->
<svg version="1.1" id="圖層_1" xmlns="http://www.w3.org/2000/svg" xmlns:xlink="http://www.w3.org/1999/xlink" x="0px" y="0px"
	 viewBox="0 0 72 72" style="enable-background:new 0 0 72 72;" xml:space="preserve">
<style type="text/css">
	.st0{fill-rule:evenodd;clip-rule:evenodd;}
</style>
<g>
	<g>
		<g>
			<g>
				<g>
					<path class="st0" d="M37.6,7.2L46,23.8c0.3,0.5,0.8,0.9,1.3,1l18.4,2.8c1.5,0.2,2,2,1,3L53.5,43.8c-0.4,0.4-0.6,1-0.5,1.6
						l3,18.3c0.2,1.4-1.3,2.5-2.6,1.9L36.8,57c-0.5-0.3-1.1-0.3-1.6,0l-16.5,8.5c-1.3,0.7-2.8-0.4-2.6-1.9l3-18.3
						c0.1-0.6-0.1-1.2-0.5-1.6L5.4,30.7c-1-1-0.5-2.8,1-3l18.4-2.8c0.6-0.1,1.1-0.4,1.3-1l8.4-16.6C35.1,5.9,36.9,5.9,37.6,7.2"/>
				</g>
			</g>
		</g>
	</g>
</g>
</svg>
