<?xml version="1.0" encoding="utf-8"?>
<!-- Generator: Adobe Illustrator 23.1.0, SVG Export Plug-In . SVG Version: 6.00 Build 0)  -->
<svg version="1.1" id="圖層_1" xmlns="http://www.w3.org/2000/svg" xmlns:xlink="http://www.w3.org/1999/xlink" x="0px" y="0px"
	 viewBox="0 0 72 72" style="enable-background:new 0 0 72 72;" xml:space="preserve">
<style type="text/css">
	.st0{fill-rule:evenodd;clip-rule:evenodd;fill:url(#SVGID_1_);}
</style>
<linearGradient id="SVGID_1_" gradientUnits="userSpaceOnUse" x1="-256.5022" y1="415.5216" x2="-253.6689" y2="412.8803" gradientTransform="matrix(21.75 0 0 -21 5582.875 8735.5)">
	<stop  offset="2.200000e-04" style="stop-color:#3FBDFC"/>
	<stop  offset="1" style="stop-color:#2A67F7"/>
</linearGradient>
<path class="st0" d="M45.6,55.1c0,1.2-1,2.1-2.1,2.1H28.6c-1.2,0-2.1-1-2.1-2.1v-4.3c0-1.2,1-2.1,2.1-2.1s2.1,1,2.1,2.1V53h10.6
	v-2.1c0-1.2,1-2.1,2.1-2.1s2.1,1,2.1,2.1V55.1z M64.7,40.3H7.3c-1.2,0-2.1,1-2.1,2.1v21.3c0,1.2,1,2.1,2.1,2.1h57.4
	c1.2,0,2.1-1,2.1-2.1V42.4C66.8,41.2,65.9,40.3,64.7,40.3z M50.9,17.9H21.1c-1.2,0-2.1-1-2.1-2.1s1-2.1,2.1-2.1h29.8
	c1.2,0,2.1,1,2.1,2.1S52,17.9,50.9,17.9z M50.9,28.6H21.1c-1.2,0-2.1-1-2.1-2.1s1-2.1,2.1-2.1h29.8c1.2,0,2.1,1,2.1,2.1
	S52,28.6,50.9,28.6z M61.5,8.4c0-1.2-1-2.1-2.1-2.1H12.6c-1.2,0-2.1,1-2.1,2.1V36h51V8.4z"/>
</svg>
