<?xml version="1.0" encoding="utf-8"?>
<!-- Generator: Adobe Illustrator 23.1.0, SVG Export Plug-In . SVG Version: 6.00 Build 0)  -->
<svg version="1.1" id="圖層_1" xmlns="http://www.w3.org/2000/svg" xmlns:xlink="http://www.w3.org/1999/xlink" x="0px" y="0px"
	 viewBox="0 0 72 72" style="enable-background:new 0 0 72 72;" xml:space="preserve">
<path d="M21.7,36c0-8.7-5.4-16.5-13.4-19.7C4.3,21.9,2,28.7,2,36s2.3,14.2,6.3,19.7C16.3,52.5,21.7,44.7,21.7,36z"/>
<path d="M63.7,16.3c-8,3.2-13.4,11.1-13.4,19.7c0,8.7,5.4,16.6,13.4,19.7c4-5.6,6.3-12.4,6.3-19.7S67.7,21.8,63.7,16.3z"/>
<path d="M49.9,51.2c-3.1-4.4-4.8-9.7-4.8-15.2s1.7-10.7,4.8-15.2c2.6-3.7,6.2-6.7,10.2-8.6C54,6,45.4,2.1,35.9,2.1
	c-9.5,0-18.1,3.9-24.2,10.2c4.1,1.9,7.6,4.9,10.2,8.6c3.1,4.5,4.8,9.7,4.8,15.2S25.1,46.7,22,51.2c-2.6,3.7-6.2,6.7-10.2,8.6
	c6.2,6.3,14.7,10.2,24.2,10.2c9.5,0,18.1-3.9,24.2-10.2C56.1,57.8,52.5,54.9,49.9,51.2z"/>
</svg>
