<?xml version="1.0" encoding="utf-8"?>
<!-- Generator: Adobe Illustrator 23.1.0, SVG Export Plug-In . SVG Version: 6.00 Build 0)  -->
<svg version="1.1" id="圖層_1" xmlns="http://www.w3.org/2000/svg" xmlns:xlink="http://www.w3.org/1999/xlink" x="0px" y="0px"
	 viewBox="0 0 72 72" style="enable-background:new 0 0 72 72;" xml:space="preserve">
<style type="text/css">
	.st0{fill-rule:evenodd;clip-rule:evenodd;fill:url(#SVGID_1_);}
</style>
<linearGradient id="SVGID_1_" gradientUnits="userSpaceOnUse" x1="-255.9922" y1="410.1172" x2="-253.1589" y2="408.3681" gradientTransform="matrix(21 0 0 -16.5 5381.5 6789.25)">
	<stop  offset="0" style="stop-color:#FFAC59"/>
	<stop  offset="1" style="stop-color:#FFE270"/>
</linearGradient>
<path class="st0" d="M50.9,38.1c-1.2,0-2.1-1-2.1-2.1s1-2.1,2.1-2.1s2.1,1,2.1,2.1S52,38.1,50.9,38.1 M61.5,29.6H48.8
	c-2.3,0-4.3,1.9-4.3,4.3v4.3c0,2.3,1.9,4.3,4.3,4.3h12.8c2.3,0,4.3-1.9,4.3-4.3v-4.3C65.8,31.5,63.8,29.6,61.5,29.6 M40.3,40.3v-8.5
	c0-3.5,2.9-6.4,6.4-6.4h14.9V19c0-3.5-2.9-6.4-6.4-6.4H12.6c-3.5,0-6.4,2.9-6.4,6.4v34c0,3.5,2.9,6.4,6.4,6.4h42.5
	c3.5,0,6.4-2.9,6.4-6.4v-6.4H46.6C43.1,46.6,40.3,43.8,40.3,40.3"/>
</svg>
