<?xml version="1.0" encoding="utf-8"?>
<!-- Generator: Adobe Illustrator 23.1.0, SVG Export Plug-In . SVG Version: 6.00 Build 0)  -->
<svg version="1.1" id="圖層_1" xmlns="http://www.w3.org/2000/svg" xmlns:xlink="http://www.w3.org/1999/xlink" x="0px" y="0px"
	 viewBox="0 0 72 72" style="enable-background:new 0 0 72 72;" xml:space="preserve">
<style type="text/css">
	.st0{fill-rule:evenodd;clip-rule:evenodd;fill:url(#SVGID_1_);}
</style>
<linearGradient id="SVGID_1_" gradientUnits="userSpaceOnUse" x1="-257.0602" y1="410.6584" x2="-254.2268" y2="409.1165" gradientTransform="matrix(22.875 0 0 -16.875 5884.75 6951.625)">
	<stop  offset="2.200000e-04" style="stop-color:#3FBDFC"/>
	<stop  offset="1" style="stop-color:#2A67F7"/>
</linearGradient>
<path class="st0" d="M59,48.7L55.7,52c-0.1,0.1-0.3,0.3-0.5,0.3c-0.4,0.2-0.8,0.2-1.2,0c-0.2-0.1-0.4-0.2-0.5-0.3l-3.3-3.3
	c-0.6-0.6-0.6-1.6,0-2.3c0.6-0.6,1.6-0.6,2.3,0L53,47v-5.7c0-0.9,0.7-1.6,1.6-1.6c0.9,0,1.6,0.7,1.6,1.6V47l0.6-0.6
	c0.6-0.6,1.6-0.6,2.3,0C59.7,47,59.7,48.1,59,48.7z M54.6,32.3c-7.6,0-13.8,6.2-13.8,13.8S47,59.9,54.6,59.9s13.8-6.2,13.8-13.8
	S62.2,32.3,54.6,32.3L54.6,32.3z M33.3,39.7c-3.5,0-6.4-2.9-6.4-6.4s2.8-6.4,6.4-6.4c3.5,0,6.4,2.9,6.4,6.4S36.9,39.7,33.3,39.7
	L33.3,39.7z M48.2,20.6H18.5c0,3.5-2.9,6.4-6.4,6.4v12.8c3.5,0,6.4,2.9,6.4,6.4h19.1c0-9.4,7.6-17,17-17V27
	C51.1,27,48.2,24.1,48.2,20.6L48.2,20.6z M14.2,50.3v-4.3c0-1.2-1-2.1-2.1-2.1H7.8V22.7h4.2c1.2,0,2.1-1,2.1-2.1v-4.3h38.3v4.3
	c0,1.2,1,2.1,2.1,2.1h4.3v6.9c1.5,0.4,2.9,1,4.3,1.7V18.5c0-3.5-2.9-6.4-6.4-6.4H10c-3.5,0-6.4,2.9-6.4,6.4v29.8
	c0,3.5,2.9,6.4,6.4,6.4h29.9c-0.8-1.3-1.3-2.7-1.7-4.3H14.2L14.2,50.3z"/>
</svg>
